<?xml version="1.0" standalone="no"?>
<!DOCTYPE svg PUBLIC "-//W3C//DTD SVG 20010904//EN"
 "http://www.w3.org/TR/2001/REC-SVG-20010904/DTD/svg10.dtd">
<svg version="1.0" xmlns="http://www.w3.org/2000/svg"
 width="1920.000000pt" height="1080.000000pt" viewBox="0 0 1920.000000 1080.000000"
 preserveAspectRatio="xMidYMid meet">

<g transform="translate(0.000000,1080.000000) scale(0.100000,-0.100000)"
fill="#000000" stroke="none">
<path d="M3125 8675 c-341 -34 -602 -101 -850 -219 -338 -161 -618 -408 -840
-741 -392 -587 -430 -1334 -102 -1995 316 -635 905 -1054 1679 -1195 230 -41
223 -17 -30 100 -350 163 -430 203 -520 258 -139 85 -236 160 -351 271 -249
243 -418 549 -492 896 -33 154 -34 427 -1 589 46 226 134 442 253 622 93 140
281 323 439 429 283 188 579 299 910 340 124 15 411 12 547 -5 387 -51 767
-189 1073 -391 275 -181 540 -461 717 -755 108 -180 100 -177 -89 36 -367 416
-897 750 -1379 869 -449 111 -1016 52 -1424 -149 -387 -191 -677 -503 -788
-850 -88 -272 -81 -608 17 -909 163 -496 545 -861 1149 -1100 236 -93 415
-107 599 -46 190 64 339 226 377 408 70 339 -155 705 -522 852 -214 85 -445
81 -635 -12 -90 -44 -196 -150 -240 -240 -78 -159 -81 -355 -7 -515 14 -31 25
-60 25 -66 0 -20 -120 106 -194 203 -131 173 -223 393 -262 620 -24 145 -16
350 19 480 80 298 267 568 502 727 377 255 882 279 1417 68 517 -204 1026
-683 1270 -1195 152 -318 226 -671 215 -1020 -6 -181 -24 -277 -77 -401 -128
-301 -411 -508 -805 -588 -202 -41 -480 -49 -675 -20 -116 17 -190 40 -475
144 -354 130 -416 149 -544 170 -343 58 -766 -73 -1086 -335 -94 -77 -254
-245 -305 -320 -85 -125 -142 -280 -127 -343 17 -66 79 -57 227 34 127 78 214
110 315 116 111 7 179 -19 255 -97 123 -126 173 -252 285 -706 91 -366 126
-465 176 -493 63 -35 104 10 282 310 136 231 208 329 310 426 143 136 274 194
452 201 198 7 322 -43 470 -192 99 -100 128 -145 277 -431 117 -224 159 -290
197 -310 116 -59 172 30 416 670 114 298 218 481 332 585 107 98 233 132 354
96 135 -39 308 -178 476 -384 90 -109 106 -122 148 -122 65 0 86 36 138 230
68 254 111 486 144 780 25 221 25 803 0 1015 -90 768 -303 1409 -673 2021
-259 430 -526 723 -914 1005 -622 453 -1319 647 -2055 574z"/>
<path d="M10196 6854 c-242 -44 -459 -158 -628 -331 -250 -258 -380 -609 -347
-936 48 -469 349 -846 799 -999 121 -41 233 -58 380 -58 194 0 346 36 536 126
279 132 508 407 598 715 62 217 60 427 -9 663 -123 422 -483 746 -913 821
-105 19 -311 18 -416 -1z m340 -559 c96 -20 152 -45 231 -101 111 -79 199
-212 234 -354 22 -88 18 -242 -8 -325 -59 -189 -208 -340 -397 -402 -66 -21
-101 -26 -191 -27 -136 -1 -224 24 -331 96 -186 124 -274 289 -274 511 0 179
54 314 174 432 150 149 358 212 562 170z"/>
<path d="M7682 6822 c-10 -6 -12 -239 -10 -1128 l3 -1119 400 -3 c426 -3 573
5 695 39 294 80 449 278 466 594 15 269 -75 440 -282 536 l-85 40 75 70 c135
127 178 220 179 394 1 180 -46 299 -162 408 -79 74 -161 120 -268 149 -73 20
-107 21 -538 25 -253 2 -466 0 -473 -5z m845 -519 c97 -45 97 -258 1 -309 -25
-14 -64 -19 -170 -22 l-138 -4 0 176 0 176 136 0 c106 0 144 -4 171 -17z m45
-829 c63 -32 103 -119 95 -205 -7 -83 -41 -133 -113 -166 -48 -22 -74 -26
-194 -30 l-140 -6 0 211 0 211 68 3 c110 6 255 -4 284 -18z"/>
<path d="M11647 6824 c-16 -5 -17 -65 -15 -1127 l3 -1122 445 -3 c470 -3 618
5 735 38 387 111 653 472 706 958 17 162 -12 395 -71 572 -118 352 -400 600
-758 666 -70 13 -181 17 -557 20 -258 1 -478 1 -488 -2z m879 -519 c212 -17
357 -153 428 -399 48 -163 44 -329 -9 -486 -35 -102 -71 -164 -132 -221 -76
-72 -139 -98 -265 -109 -134 -12 -339 -12 -358 0 -13 8 -15 87 -18 593 -1 376
1 594 8 611 l10 27 137 -6 c76 -3 166 -8 199 -10z"/>
<path d="M13247 6823 c-13 -3 -18 -11 -14 -26 2 -12 143 -337 313 -722 l309
-700 5 -395 5 -395 270 0 270 0 5 380 c3 209 9 389 14 400 267 591 646 1438
646 1444 0 16 -65 21 -294 21 -163 0 -238 -4 -255 -13 -21 -10 -53 -82 -184
-412 -87 -220 -162 -404 -166 -408 -4 -4 -81 175 -171 398 -110 274 -169 410
-183 420 -18 12 -68 15 -287 14 -146 -1 -273 -3 -283 -6z"/>
<path d="M8058 4459 c-78 -11 -201 -54 -273 -94 -242 -135 -366 -332 -366
-584 0 -138 33 -246 109 -357 90 -133 205 -215 489 -348 216 -100 271 -136
308 -201 52 -87 40 -182 -31 -244 -85 -75 -252 -61 -311 27 -12 18 -31 72 -42
120 -12 51 -27 92 -38 99 -26 20 -512 18 -519 -1 -11 -28 25 -283 49 -350 69
-188 195 -302 414 -375 222 -74 508 -63 707 28 200 91 342 254 392 451 20 79
22 234 5 310 -31 131 -115 264 -231 363 -76 65 -113 86 -364 204 -121 57 -234
115 -253 129 -52 40 -76 95 -71 170 7 112 83 184 195 184 88 0 146 -59 172
-174 l12 -53 91 -7 c114 -8 375 -8 406 0 20 6 22 12 22 68 -1 157 -62 308
-169 415 -174 174 -443 258 -703 220z"/>
<path d="M13570 4401 l-175 -6 -3 -1100 c-1 -605 0 -1110 3 -1123 l5 -22 258
2 257 3 5 674 5 674 424 -672 c298 -472 430 -673 445 -677 12 -2 118 -3 236
-2 l215 3 3 1123 2 1122 -250 0 -250 0 0 -653 c0 -360 -3 -657 -6 -660 -9 -9
-3 -19 -453 653 -227 338 -422 625 -434 637 -28 29 -62 31 -287 24z"/>
<path d="M9037 4393 c-4 -3 -7 -504 -7 -1113 0 -847 3 -1109 12 -1118 18 -18
514 -17 525 1 4 6 10 165 13 352 l5 340 230 6 c219 5 234 7 313 34 185 63 317
175 406 345 112 212 131 454 55 685 -85 254 -254 406 -511 459 -64 13 -158 16
-556 16 -263 0 -482 -3 -485 -7z m903 -529 c55 -25 105 -80 119 -131 16 -56
13 -153 -5 -208 -10 -27 -34 -65 -55 -86 -56 -56 -115 -70 -280 -67 l-134 3
-3 259 -2 258 157 -4 c132 -3 165 -7 203 -24z"/>
<path d="M10707 4393 c-4 -3 -7 -505 -7 -1113 0 -927 2 -1109 14 -1119 9 -8
90 -11 272 -9 l259 3 0 1120 0 1120 -266 3 c-146 1 -268 -1 -272 -5z"/>
<path d="M11397 4393 c-4 -3 -7 -507 -7 -1119 l0 -1114 23 -5 c12 -3 130 -4
262 -3 l240 3 5 670 5 670 31 -45 c17 -25 205 -322 418 -660 214 -338 395
-621 404 -627 12 -10 77 -13 244 -13 l228 0 0 1125 0 1125 -250 0 -250 0 0
-655 c0 -569 -2 -655 -15 -655 -8 0 -20 10 -26 23 -20 37 -831 1240 -852 1265
-20 22 -25 22 -237 22 -119 0 -220 -3 -223 -7z"/>
<path d="M15386 4384 c-11 -29 -7 -2194 4 -2215 10 -18 28 -19 610 -19 582 0
600 1 610 19 12 23 14 440 2 458 -6 10 -89 13 -338 15 l-329 3 -3 188 -2 187
328 0 c242 0 331 3 340 12 14 14 17 474 4 495 -6 10 -89 13 -338 15 l-329 3
-3 174 c-2 133 1 176 10 183 7 4 158 8 334 8 284 0 323 2 328 16 8 20 8 438 0
458 -6 14 -69 16 -614 16 -545 0 -608 -2 -614 -16z"/>
<path d="M16702 3278 l3 -1123 250 -3 c138 -1 260 0 273 3 l22 5 0 350 c0 193
3 350 8 350 4 0 108 -147 231 -328 123 -180 236 -339 250 -354 l25 -28 333 0
c218 0 333 3 333 10 0 6 -131 177 -291 382 -160 204 -293 377 -295 383 -3 7
29 24 85 44 159 57 278 160 342 296 103 219 100 539 -7 762 -88 185 -260 309
-496 357 -64 13 -159 16 -573 16 l-495 0 2 -1122z m970 587 c31 -22 52 -49 78
-100 33 -66 35 -75 35 -170 0 -90 -3 -105 -29 -155 -34 -67 -78 -115 -131
-143 -36 -20 -55 -22 -205 -22 l-165 0 -3 300 c-1 165 0 306 3 313 4 10 43 13
189 10 l184 -3 44 -30z"/>
</g>
</svg>
